# Blender v2.82 (sub 7) OBJ File: ''
# www.blender.org
mtllib collision.mtl
o Cube.001
v -4.973831 0.000001 -18.630255
v 4.999819 -0.000001 17.369745
v 4.999819 0.000001 -18.630255
v -4.973831 -0.000001 17.369745
v 4.999819 0.986331 -18.630253
v 9.896444 0.986329 17.369747
v 9.896444 0.986331 -18.630253
v 4.999819 0.986329 17.369747
v 16.060545 2.287544 17.369747
v 9.896444 5.670491 -18.630253
v 16.060545 5.670489 17.369747
v 16.060545 5.670491 -18.630253
v 9.896444 5.670489 17.369747
v 15.287322 5.670491 -5.130252
v 15.287322 11.016270 3.869749
v 15.287322 5.670490 3.869747
v 14.230067 11.016270 3.869749
v 14.230067 5.670490 3.869747
v -4.973831 11.016269 17.369749
v 16.798561 11.016269 -18.630251
v 16.798561 11.016269 17.369749
v 14.230066 5.670491 -5.130252
v 16.798561 21.258974 17.369751
v 16.060545 2.287543 -18.630253
v 29.522598 2.287543 -18.630253
v 29.522598 2.287544 17.369747
v 33.043312 16.338959 17.369749
v 29.522598 16.338959 17.369749
v 29.522598 16.338959 -18.630251
v 33.043312 7.115442 17.369740
v 33.043312 16.338959 -18.630251
v 22.833147 7.188468 1.619748
v 27.040121 7.188467 -2.880252
v 22.833147 7.188467 -2.880252
v 27.040121 6.331430 -2.880252
v 22.833147 6.331433 1.619748
v 22.833147 6.331430 -2.880252
v 27.040121 7.188468 1.619748
v 18.541616 13.222902 1.619748
v 22.748592 13.222900 -2.880252
v 18.541616 13.222900 -2.880252
v 22.748592 12.365864 -2.880252
v 18.541616 12.365866 1.619748
v 18.541616 12.365864 -2.880252
v 22.748592 13.222902 1.619748
v 16.798561 21.258974 -18.630249
v 38.517345 23.646904 -4.230245
v 33.717346 23.646904 -4.230245
v 33.717346 23.646904 2.969755
v 38.517345 23.646904 2.969755
v 15.287322 11.016268 -5.130251
v -4.973831 11.016269 -18.630251
v 14.230066 11.016268 -5.130251
v 27.040121 6.331433 1.619748
v 22.748592 12.365866 1.619748
v 40.917347 25.646904 -4.230246
v 40.917347 25.646904 2.969754
v 64.331917 7.115442 17.369743
v 64.331917 31.549026 17.369757
v 64.331917 31.549026 -18.630243
v 64.331917 7.115442 -18.630255
v 75.899170 35.715897 2.969756
v 52.079620 25.646904 2.969754
v 52.079620 25.646904 -4.230246
v 31.317345 25.646904 -4.230246
v 31.317345 25.646904 2.969754
v 22.581993 33.549026 -4.230244
v 22.581993 33.549026 2.969755
v 17.781994 33.549026 2.969755
v 17.781994 33.549026 -4.230244
v 24.981995 31.549026 -4.230244
v 24.981995 31.549026 2.969756
v 15.381994 31.549026 -4.230244
v 15.381994 31.549026 2.969756
v 7.039726 23.646904 -4.230245
v 7.039726 23.646904 2.969752
v 9.439728 25.646904 -4.230246
v 9.439728 25.646904 2.969754
v -11.773830 47.859394 -18.630241
v -11.773830 47.859394 17.369759
v -11.773830 23.646904 17.369743
v -3.973194 31.549026 2.969756
v -3.973194 31.549026 -4.230244
v -3.973194 35.715897 2.969756
v 52.079620 21.258974 17.369753
v 52.079620 21.258974 -18.630247
v -11.773830 23.646904 -18.630245
v 33.043312 7.115442 -18.630259
v 74.694572 47.859394 -18.630241
v 74.694572 47.859394 17.369759
v 74.694572 53.072376 -18.630239
v 74.694572 53.072376 17.369761
v 75.899170 35.715897 -4.230244
v -3.973194 35.715897 -4.230244
v -3.973192 40.932171 -3.030245
v -3.973192 35.715897 -3.030244
v 75.899170 35.715897 3.719757
v -3.973192 35.715897 3.719757
v 75.899170 35.715897 -3.030242
v -2.715525 39.862587 3.719755
v -2.715525 39.862587 -3.030245
v -2.715525 35.715897 3.719757
v -2.715525 35.715897 -3.030242
v 74.641495 35.715897 3.719757
v 74.641495 39.862587 3.719757
v 75.899170 40.932171 3.719755
v -3.973192 40.932171 3.719755
v 75.899170 40.932171 -3.030245
v -3.973192 40.932171 -3.030245
v 74.641495 39.862587 -3.030243
v -11.773829 23.646904 -4.230245
v -11.773829 23.646904 2.969752
v 52.079620 21.258974 2.969754
v 52.079620 21.258974 -4.230246
v 64.331917 31.549026 -4.230244
v 64.331917 31.549026 2.969756
vt 0.875000 0.500000
vt 0.750000 0.750000
vt 0.750000 0.500000
vt 0.750000 0.500000
vt 0.687500 0.750000
vt 0.687500 0.500000
vt 0.687500 0.500000
vt 0.625000 0.750000
vt 0.625000 0.500000
vt 1.000000 1.000000
vt 1.000000 0.000000
vt 1.000000 0.000000
vt 0.000000 0.000000
vt 0.000000 0.000000
vt 0.000000 0.000000
vt 0.000000 0.000000
vt 0.000000 0.000000
vt 1.000000 0.000000
vt 1.000000 1.000000
vt 1.000000 0.000000
vt 0.000000 0.000000
vt 0.625000 0.500000
vt 0.625000 0.750000
vt 0.625000 0.500000
vt 0.000000 0.000000
vt 0.000000 0.000000
vt 0.000000 0.000000
vt 0.000000 0.000000
vt 0.000000 0.000000
vt 0.375000 0.750000
vt 0.375000 0.750000
vt 0.000000 0.000000
vt 0.625000 0.750000
vt 0.625000 0.500000
vt 0.625000 0.500000
vt 0.625000 0.500000
vt 0.625000 0.750000
vt 0.625000 0.500000
vt 0.625000 0.750000
vt 0.625000 0.750000
vt 0.625000 0.500000
vt 0.625000 0.500000
vt 0.625000 0.500000
vt 0.625000 0.750000
vt 0.625000 0.500000
vt 0.625000 0.750000
vt 0.000000 0.000000
vt 0.000000 0.000000
vt 0.875000 0.750000
vt 0.750000 0.750000
vt 0.000000 0.000000
vt 0.000000 0.000000
vt 0.000000 0.000000
vt 0.000000 0.000000
vt 0.687500 0.750000
vt 1.000000 1.000000
vt 0.000000 0.000000
vt 1.000000 1.000000
vt 0.625000 0.750000
vt 0.625000 0.750000
vt 0.625000 0.750000
vt 0.000000 0.000000
vt 0.000000 0.000000
vt 0.000000 0.000000
vt 0.000000 0.000000
vt 0.000000 0.000000
vt 0.000000 0.000000
vt 0.000000 0.000000
vt 0.000000 0.000000
vt 0.000000 0.000000
vt 0.000000 0.000000
vt 0.000000 0.000000
vt 0.000000 0.000000
vt 0.000000 0.000000
vt 0.000000 0.000000
vt 0.000000 0.000000
vt 0.000000 0.000000
vt 0.000000 0.000000
vt 0.000000 0.000000
vt 0.000000 0.000000
vt 0.000000 0.000000
vt 0.000000 0.000000
vt 0.000000 0.000000
vt 0.000000 0.000000
vt 0.000000 0.000000
vt 0.000000 0.000000
vt 0.000000 0.000000
vt 0.000000 0.000000
vt 0.000000 0.000000
vt 0.000000 0.000000
vt 0.000000 0.000000
vt 0.000000 0.000000
vt 0.000000 0.000000
vt 0.000000 0.000000
vt 0.000000 0.000000
vt 0.000000 0.000000
vt 0.000000 0.000000
vt 0.000000 0.000000
vt 0.000000 0.000000
vt 0.000000 0.000000
vt 0.000000 0.000000
vt 0.000000 0.000000
vt 0.000000 0.000000
vt 0.000000 0.000000
vt 0.000000 0.000000
vt 0.000000 0.000000
vt 0.000000 0.000000
vt 0.000000 0.000000
vt 0.000000 0.000000
vt 0.000000 0.000000
vt 0.000000 0.000000
vt 0.000000 0.000000
vt 0.000000 0.000000
vt 0.000000 0.000000
vt 0.000000 0.000000
vt 0.000000 0.000000
vt 0.000000 0.000000
vt 0.000000 0.000000
vt 0.000000 0.000000
vt 0.000000 0.000000
vt 0.000000 0.000000
vn 0.0000 1.0000 0.0000
vn -1.0000 0.0000 0.0000
vn 1.0000 0.0000 0.0000
vn 0.0000 -1.0000 0.0000
vn 0.0000 -0.0000 1.0000
vn -0.6402 0.7682 0.0000
vn 0.0000 0.0000 -1.0000
vn 0.6402 0.7682 0.0000
vn -0.6402 -0.7682 0.0000
vn 0.6402 -0.7682 0.0000
usemtl None
s off
f 1/1/1 2/2/1 3/3/1
f 2/2/2 5/4/2 3/3/2
f 5/4/1 6/5/1 7/6/1
f 10/7/1 11/8/1 12/9/1
f 6/5/2 10/7/2 7/6/2
f 14/10/3 15/11/3 16/12/3
f 19/13/4 20/14/4 21/15/4
f 1/16/3 19/13/3 4/17/3
f 17/18/2 22/19/2 18/20/2
f 20/14/3 23/21/3 21/15/3
f 11/8/3 24/22/3 12/9/3
f 9/23/1 25/24/1 24/22/1
f 27/25/1 29/26/1 28/27/1
f 26/28/2 29/26/2 25/29/2
f 27/25/3 30/30/3 88/31/3 31/32/3
f 32/33/1 33/34/1 34/35/1
f 35/36/4 36/37/4 37/38/4
f 36/37/5 38/39/5 32/33/5
f 37/38/2 32/33/2 34/35/2
f 38/39/3 35/36/3 33/34/3
f 39/40/1 40/41/1 41/42/1
f 42/43/4 43/44/4 44/45/4
f 43/44/5 45/46/5 39/40/5
f 44/45/2 39/40/2 41/42/2
f 45/46/3 42/43/3 40/41/3
f 46/47/4 85/48/4 23/21/4
f 1/1/1 4/49/1 2/2/1
f 2/2/2 8/50/2 5/4/2
f 5/4/1 8/50/1 6/5/1
f 47/51/1 48/52/1 49/53/1 50/54/1
f 10/7/1 13/55/1 11/8/1
f 6/5/2 13/55/2 10/7/2
f 14/10/3 51/56/3 15/11/3
f 19/13/4 52/57/4 20/14/4
f 1/16/3 52/57/3 19/13/3
f 17/18/2 53/58/2 22/19/2
f 20/14/3 46/47/3 23/21/3
f 11/8/3 9/23/3 24/22/3
f 9/23/1 26/59/1 25/24/1
f 27/25/1 31/32/1 29/26/1
f 26/28/2 28/27/2 29/26/2
f 32/33/1 38/39/1 33/34/1
f 35/36/4 54/60/4 36/37/4
f 36/37/5 54/60/5 38/39/5
f 37/38/2 36/37/2 32/33/2
f 38/39/3 54/60/3 35/36/3
f 39/40/1 45/46/1 40/41/1
f 42/43/4 55/61/4 43/44/4
f 43/44/5 55/61/5 45/46/5
f 44/45/2 43/44/2 39/40/2
f 45/46/3 55/61/3 42/43/3
f 56/62/6 47/51/6 50/54/6 57/63/6
f 88/31/1 30/64/1 58/65/1 61/66/1
f 42/43/7 44/45/7 40/41/7
f 40/41/7 44/45/7 41/42/7
f 58/65/2 60/67/2 61/66/2
f 58/65/2 59/68/2 60/67/2
f 56/62/1 57/63/1 63/69/1 64/70/1
f 65/71/8 66/72/8 49/53/8 48/52/8
f 66/72/1 65/71/1 77/73/1 78/74/1
f 67/75/4 68/76/4 69/77/4 70/78/4
f 71/79/9 72/80/9 68/76/9 67/75/9
f 73/81/10 70/78/10 69/77/10 74/82/10
f 77/73/6 75/83/6 76/84/6 78/74/6
f 74/82/4 82/85/4 83/86/4 73/81/4
f 64/70/3 63/69/3 113/87/3 114/88/3
f 85/48/4 46/47/4 86/89/4
f 76/84/1 75/83/1 111/90/1 112/91/1
f 81/92/3 87/93/3 79/94/3 80/95/3
f 89/96/3 91/97/3 92/98/3 90/99/3
f 80/95/4 79/94/4 89/96/4 90/99/4
f 84/100/1 62/101/1 93/102/1 94/103/1
f 98/104/2 107/105/2 95/106/2 96/107/2
f 103/108/3 101/109/3 100/110/3 102/111/3
f 98/104/5 102/111/5 100/110/5 107/105/5
f 99/112/3 108/113/3 106/114/3 97/115/3
f 104/116/5 97/115/5 106/114/5 105/117/5
f 107/105/1 106/114/1 108/113/1 109/118/1
f 100/110/5 105/117/5 106/114/5 107/105/5
f 16/12/5 15/11/5 17/18/5 18/20/5
f 105/117/4 100/110/4 101/109/4 110/119/4
f 72/80/4 71/79/4 115/120/4 116/121/4
l 14 22
