# Blender v2.82 (sub 7) OBJ File: 'asset.blend'
# www.blender.org
mtllib HOOK.mtl
o Plane
v -1.102011 -0.343407 -0.000000
v 0.955534 -0.818521 -0.000000
v -0.296503 -1.077027 -0.000000
v -0.412133 0.770182 0.000000
v -0.786174 -0.303667 0.120350
v -0.243886 -0.923024 0.126783
v -0.222933 0.700338 0.085069
v 0.668760 -0.726741 0.126783
v 0.392576 0.043389 -0.000000
v -0.786174 -0.303667 -0.120350
v -0.243886 -0.923024 -0.126783
v -0.222933 0.700339 -0.085069
v 0.668760 -0.726741 -0.126783
v 0.825533 -0.185911 0.000000
v 0.506679 -0.161470 0.125093
v 0.506679 -0.161470 -0.125093
v -0.018840 1.931106 0.000000
v 0.037776 1.845379 0.030891
v 0.037776 1.845379 -0.030890
v 0.052969 -0.286135 -0.000000
v 0.726742 -0.427115 0.127100
v -0.656821 -0.695563 0.125979
v 0.279911 -0.919591 0.126783
v -0.558321 0.171803 0.106291
v 0.726742 -0.427115 -0.127100
v -0.656821 -0.695563 -0.125979
v 0.279911 -0.919591 -0.126783
v -0.558321 0.171803 -0.106291
v -0.707214 -0.293732 -0.000000
v -0.230732 -0.884523 -0.000000
v 0.597066 -0.703795 -0.000000
v -0.175632 0.682878 0.000000
v -0.983572 -0.328504 0.105307
v -0.276772 -1.019276 -0.110935
v -0.341183 0.743991 -0.074436
v 0.847993 -0.784104 0.110935
v 0.421206 0.001041 0.089535
v 0.745044 -0.168097 -0.100687
v 0.466963 -0.219509 -0.000000
v 0.630824 0.034156 0.000000
v 0.421206 0.001041 -0.089535
v 0.051930 1.823948 0.000000
v 0.002391 1.898959 0.027029
v 0.149840 -0.261045 0.065763
v 0.117434 -0.163014 -0.000000
v 0.149840 -0.261045 -0.065763
v -0.036839 1.264074 -0.059148
v -0.036839 1.264074 0.059149
v 1.017048 -0.500083 -0.000000
v -0.886639 -0.809096 -0.000000
v 0.432436 -1.051672 -0.000000
v -0.838683 0.198267 0.000000
v -0.276772 -1.019276 0.110935
v -0.983572 -0.328504 -0.105307
v -0.341183 0.743991 0.074436
v 0.847993 -0.784103 -0.110935
v 0.745044 -0.168097 0.100687
v 0.002391 1.898959 -0.027029
v -0.151209 1.349767 0.000000
v -0.599366 -0.667179 -0.000000
v 0.241780 -0.886570 -0.000000
v 0.655883 -0.414668 -0.000000
v -0.488231 0.165188 0.000000
v -0.800457 -0.766521 0.110232
v -0.800457 -0.766521 -0.110232
v 0.375239 -1.002141 0.110935
v 0.375239 -1.002141 -0.110935
v -0.733547 0.188343 0.093004
v 0.910887 -0.471855 0.109914
v -0.733547 0.188343 -0.093004
v 0.614497 0.013071 -0.075506
v 0.910887 -0.471855 -0.109914
v 0.614497 0.013071 0.075506
v 0.177070 -0.151299 -0.070224
v 0.208747 -0.269180 -0.000000
v 0.177070 -0.151299 0.070224
v -0.108321 1.317632 0.051755
v -0.108321 1.317632 -0.051755
v -0.008247 1.242650 0.000000
vt 0.000000 0.000000
vt 0.000000 0.000000
vt 0.000000 0.000000
vt 0.000000 0.000000
vt 0.000000 0.000000
vt 0.000000 0.000000
vt 0.000000 0.000000
vt 0.000000 0.000000
vt 0.000000 0.000000
vt 0.000000 0.000000
vt 0.000000 0.000000
vt 0.000000 0.000000
vt 0.000000 0.000000
vt 0.000000 0.000000
vt 0.000000 0.000000
vt 0.000000 0.000000
vt 0.000000 0.000000
vt 0.000000 0.000000
vt 0.000000 0.000000
vt 0.000000 0.000000
vt 0.000000 0.000000
vt 0.000000 0.000000
vt 0.000000 0.000000
vt 0.000000 0.000000
vt 0.000000 0.000000
vt 0.000000 0.000000
vt 0.000000 0.000000
vt 0.000000 0.000000
vt 0.000000 0.000000
vt 0.000000 0.000000
vt 0.000000 0.000000
vt 0.000000 0.000000
vt 0.000000 0.000000
vt 0.000000 0.000000
vt 0.000000 0.000000
vt 0.000000 0.000000
vt 0.000000 0.000000
vt 0.000000 0.000000
vt 0.000000 0.000000
vt 0.000000 0.000000
vt 0.000000 0.000000
vt 0.000000 0.000000
vt 0.000000 0.000000
vt 0.000000 0.000000
vt 0.000000 0.000000
vt 0.000000 0.000000
vt 0.000000 0.000000
vt 0.000000 0.000000
vt 0.000000 0.000000
vt 0.000000 0.000000
vt 0.000000 0.000000
vt 0.000000 0.000000
vt 0.000000 0.000000
vt 0.000000 0.000000
vt 0.000000 0.000000
vt 0.000000 0.000000
vt 0.000000 0.000000
vt 0.000000 0.000000
vt 0.000000 0.000000
vt 0.000000 0.000000
vt 0.000000 0.000000
vt 0.000000 0.000000
vt 0.000000 0.000000
vt 0.000000 0.000000
vt 0.000000 0.000000
vt 0.000000 0.000000
vt 0.000000 0.000000
vt 0.000000 0.000000
vt 0.000000 0.000000
vt 0.000000 0.000000
vt 0.000000 0.000000
vt 0.000000 0.000000
vt 0.000000 0.000000
vt 0.000000 0.000000
vt 0.000000 0.000000
vt 0.000000 0.000000
vt 0.000000 0.000000
vt 0.000000 0.000000
vt 0.000000 0.000000
vn -0.1187 -0.4200 -0.8997
vn -0.2883 -0.2146 -0.9332
vn -0.7558 -0.6548 0.0000
vn -0.2489 -0.9685 0.0000
vn -0.3365 -0.0056 -0.9416
vn -0.9960 0.0893 0.0000
vn -0.3365 -0.0056 0.9416
vn -0.2883 -0.2146 0.9332
vn -0.1187 -0.4200 0.8997
vn 0.2734 -0.1715 -0.9465
vn 0.1289 -0.4195 -0.8985
vn 0.1987 -0.9800 0.0000
vn 0.7585 -0.6517 0.0000
vn 0.1289 -0.4195 0.8985
vn 0.2734 -0.1715 0.9465
vn 0.1397 0.2244 -0.9644
vn 0.3127 0.0439 -0.9488
vn 0.9453 0.3262 0.0000
vn 0.2675 0.9636 0.0000
vn 0.3127 0.0439 0.9488
vn 0.1397 0.2244 0.9644
vn -0.3962 0.1847 -0.8993
vn -0.8783 0.4780 0.0000
vn -0.4545 0.1808 -0.8722
vn -0.9150 0.4034 0.0000
vn -0.4545 0.1808 0.8722
vn -0.3962 0.1847 0.8993
vn 0.2059 0.9785 0.0000
vn 0.7339 0.6792 0.0000
vn 0.3617 0.3941 -0.8449
vn 0.1171 0.5975 -0.7932
vn 0.9999 0.0127 0.0000
vn 0.4673 -0.0276 -0.8837
vn 0.3617 0.3941 0.8449
vn 0.4673 -0.0276 0.8837
vn 0.1171 0.5975 0.7932
vn -0.8172 0.5763 0.0000
vn -0.2633 0.9647 0.0000
vn -0.1167 0.5885 -0.8000
vn -0.3831 0.3666 -0.8478
vn -0.1167 0.5885 0.8000
vn -0.3831 0.3666 0.8478
vn 0.8617 -0.5074 0.0000
vn 0.3696 -0.2480 -0.8954
vn 0.8569 -0.5154 0.0000
vn 0.3399 -0.2184 -0.9147
vn -0.8290 -0.5592 0.0000
vn -0.9931 -0.1173 0.0000
vn -0.5083 -0.1321 -0.8509
vn -0.4607 -0.3773 -0.8033
vn 0.3696 -0.2480 0.8954
vn 0.3399 -0.2184 0.9147
vn -0.4391 -0.8984 0.0000
vn -0.2892 -0.6603 0.6930
vn -0.4607 -0.3773 0.8033
vn 0.3264 -0.9452 0.0000
vn 0.1809 -0.6147 0.7677
vn -0.5083 -0.1321 0.8509
vn -0.2892 -0.6603 -0.6930
vn 0.1809 -0.6147 -0.7677
vn 0.4556 -0.4104 0.7899
vn 0.3074 0.5645 0.7660
vn 0.8377 -0.5460 0.0000
vn 0.8693 0.4942 0.0000
vn -0.1763 0.9843 0.0000
vn 0.3074 0.5645 -0.7660
vn 0.4556 -0.4104 -0.7899
vn 0.3666 -0.1523 -0.9178
vn -0.4999 0.0657 -0.8636
vn 0.9523 -0.3052 0.0000
vn 0.9745 -0.2245 0.0000
vn 0.5595 -0.1402 -0.8168
vn -0.2788 -0.0096 -0.9603
vn 0.3666 -0.1523 0.9178
vn -0.4999 0.0657 0.8636
vn -0.2788 -0.0096 0.9603
vn 0.5595 -0.1402 0.8168
vn -0.9780 0.2086 0.0000
vn -0.9947 0.1026 0.0000
usemtl Material.005
s 1
f 6/1/1 22/2/2 60/3/3 30/4/4
f 22/2/2 5/5/5 29/6/6 60/3/3
f 60/3/3 29/6/6 10/7/7 26/8/8
f 30/4/4 60/3/3 26/8/8 11/9/9
f 8/10/10 23/11/11 61/12/12 31/13/13
f 23/11/11 6/1/1 30/4/4 61/12/12
f 61/12/12 30/4/4 11/9/9 27/14/14
f 31/13/13 61/12/12 27/14/14 13/15/15
f 15/16/16 21/17/17 62/18/18 39/19/19
f 21/17/17 8/10/10 31/13/13 62/18/18
f 62/18/18 31/13/13 13/15/15 25/20/20
f 39/19/19 62/18/18 25/20/20 16/21/21
f 5/5/5 24/22/22 63/23/23 29/6/6
f 24/22/22 7/24/24 32/25/25 63/23/23
f 63/23/23 32/25/25 12/26/26 28/27/27
f 29/6/6 63/23/23 28/27/27 10/7/7
f 3/28/28 50/29/29 64/30/30 53/31/31
f 50/29/29 1/32/32 33/33/33 64/30/30
f 64/30/30 33/33/33 5/5/5 22/2/2
f 53/31/31 64/30/30 22/2/2 6/1/1
f 1/32/32 50/29/29 65/34/34 54/35/35
f 50/29/29 3/28/28 34/36/36 65/34/34
f 65/34/34 34/36/36 11/9/9 26/8/8
f 54/35/35 65/34/34 26/8/8 10/7/7
f 2/37/37 51/38/38 66/39/39 36/40/40
f 51/38/38 3/28/28 53/31/31 66/39/39
f 66/39/39 53/31/31 6/1/1 23/11/11
f 36/40/40 66/39/39 23/11/11 8/10/10
f 3/28/28 51/38/38 67/41/41 34/36/36
f 51/38/38 2/37/37 56/42/42 67/41/41
f 67/41/41 56/42/42 13/15/15 27/14/14
f 34/36/36 67/41/41 27/14/14 11/9/9
f 1/32/32 52/43/43 68/44/44 33/33/33
f 52/43/43 4/45/45 55/46/46 68/44/44
f 68/44/44 55/46/46 7/24/24 24/22/22
f 33/33/33 68/44/44 24/22/22 5/5/5
f 14/47/47 49/48/48 69/49/49 57/50/50
f 49/48/48 2/37/37 36/40/40 69/49/49
f 69/49/49 36/40/40 8/10/10 21/17/17
f 57/50/50 69/49/49 21/17/17 15/16/16
f 4/45/45 52/43/43 70/51/51 35/52/52
f 52/43/43 1/32/32 54/35/35 70/51/51
f 70/51/51 54/35/35 10/7/7 28/27/27
f 35/52/52 70/51/51 28/27/27 12/26/26
f 14/47/47 40/53/53 71/54/54 38/55/55
f 9/56/56 41/57/57 71/54/54 40/53/53
f 16/21/21 38/55/55 71/54/54 41/57/57
f 2/37/37 49/48/48 72/58/58 56/42/42
f 49/48/48 14/47/47 38/55/55 72/58/58
f 72/58/58 38/55/55 16/21/21 25/20/20
f 56/42/42 72/58/58 25/20/20 13/15/15
f 9/56/56 40/53/53 73/59/59 37/60/60
f 14/47/47 57/50/50 73/59/59 40/53/53
f 15/16/16 37/60/60 73/59/59 57/50/50
f 16/21/21 41/57/57 74/61/61 46/62/62
f 9/56/56 45/63/63 74/61/61 41/57/57
f 20/64/64 46/62/62 74/61/61 45/63/63
f 15/16/16 39/19/19 75/65/65 44/66/66
f 16/21/21 46/62/62 75/65/65 39/19/19
f 20/64/64 44/66/66 75/65/65 46/62/62
f 9/56/56 37/60/60 76/67/67 45/63/63
f 15/16/16 44/66/66 76/67/67 37/60/60
f 20/64/64 45/63/63 76/67/67 44/66/66
f 7/24/24 55/46/46 77/68/68 48/69/69
f 55/46/46 4/45/45 59/70/70 77/68/68
f 77/68/68 59/70/70 17/71/71 43/72/72
f 48/69/69 77/68/68 43/72/72 18/73/73
f 4/45/45 35/52/52 78/74/74 59/70/70
f 35/52/52 12/26/26 47/75/75 78/74/74
f 78/74/74 47/75/75 19/76/76 58/77/77
f 59/70/70 78/74/74 58/77/77 17/71/71
f 12/26/26 32/25/25 79/78/78 47/75/75
f 32/25/25 7/24/24 48/69/69 79/78/78
f 79/78/78 48/69/69 18/73/73 42/79/79
f 47/75/75 79/78/78 42/79/79 19/76/76
