# Blender v2.82 (sub 7) OBJ File: ''
# www.blender.org
mtllib untitled.mtl
o Cube.001_Cube.003
v -10.870327 -0.960312 -3.947884
v -10.870960 -0.960312 3.947884
v -10.870960 8.181611 3.947884
v -10.870327 8.181611 -3.947884
v 0.003592 -0.960312 3.947884
v 0.004225 -0.960312 -3.947884
v 18.381403 -0.960312 4.264488
v 18.857759 -0.960312 3.108696
v 24.633724 -0.960312 9.372799
v 27.089043 -0.960312 5.436638
v 21.175390 1.907568 3.599224
v 20.235527 1.907568 5.608269
v 25.274431 1.938186 8.345669
v 26.448334 1.938186 6.463768
v 25.274431 5.826591 8.345669
v 26.448334 5.826591 6.463768
v 23.854898 1.446219 4.952274
v 22.796104 1.446219 6.901264
v 23.021181 -0.960312 4.025089
v 22.525307 2.080363 4.255627
v 21.614912 -0.960312 6.764084
v 21.525526 2.080363 6.235538
v 24.046114 1.745354 7.604855
v 25.162966 1.745354 5.688541
v 27.502712 -0.960312 12.894543
v 31.857534 -0.960312 7.199162
v 28.111540 1.938186 12.098301
v 31.248709 1.938186 7.995403
v 28.111540 5.826591 12.098301
v 31.248709 5.826591 7.995403
v 6.301640 -0.960312 3.981033
v 12.589446 -0.960312 4.900822
v 18.741728 -0.960312 6.704803
v 24.094044 -0.960312 3.475590
v 21.727970 -0.960312 7.932755
v 15.690368 -0.960312 5.693134
v 9.454637 -0.960312 4.329838
v 3.146114 -0.960312 3.854168
v 25.154192 10.331777 8.333374
v 26.379793 10.331777 6.358601
v 28.119812 10.331777 12.260368
v 31.416910 10.331777 7.968586
v 23.452206 23.230164 8.194740
v 25.367708 23.230164 4.873043
v 35.003582 23.230164 6.230026
v 27.009859 23.230164 15.966183
v 25.104071 16.780970 4.505146
v 34.453342 16.780970 7.585396
v 23.029642 16.780970 8.170616
v 28.168856 16.780970 15.114758
v 20.956980 -0.960312 1.721695
v 17.692221 -0.960312 0.185246
v 14.314884 -0.960312 -1.124466
v 10.840769 -0.960312 -2.199192
v 7.286263 -0.960312 -3.031799
v 3.668289 -0.960312 -3.616299
v 26.585693 5.826591 8.501160
v 27.171156 5.826591 7.612312
v 27.983288 5.826591 10.327675
v 29.439558 5.826591 8.322243
v 26.585693 11.228243 8.501160
v 27.171156 11.228243 7.612312
v 29.439558 11.228243 8.322243
v 27.983288 11.228243 10.327675
v 27.502712 -4.848722 12.894543
v 31.857534 -4.848722 7.199162
v 35.450031 -4.848722 20.695072
v 41.063248 -4.848722 16.234837
v 35.450031 13.656049 20.695072
v 41.063248 13.656049 16.234837
v 39.654198 13.656049 27.006924
v 45.933105 13.656049 23.546118
v 41.072880 9.598486 29.806116
v 47.576427 9.598486 26.788538
v 45.278759 9.598486 48.867138
v 52.448269 9.598486 48.867710
v 49.689224 9.598486 32.076557
v 51.216282 9.598486 37.562477
v 52.139587 9.598486 43.181595
v 45.012276 9.598486 43.958294
v 44.215179 9.598486 39.107292
v 42.896866 9.598486 34.371281
v 58.168011 23.230164 46.233662
v 39.459286 23.230164 47.079510
vt 0.000000 0.000000
vt 0.000000 0.000000
vt 0.000000 0.000000
vt 0.000000 0.000000
vt 0.000000 0.000000
vt 0.000000 0.000000
vt 0.125000 0.500000
vt 0.125000 0.750000
vt 0.156250 0.750000
vt 0.156250 0.500000
vt 0.312500 0.500000
vt 0.312500 0.750000
vt 0.375000 0.750000
vt 0.375000 0.500000
vt 0.375000 0.500000
vt 0.375000 0.750000
vt 0.375000 0.750000
vt 0.375000 0.500000
vt 0.312500 0.500000
vt 0.375000 0.500000
vt 0.125000 0.750000
vt 0.125000 0.750000
vt 0.125000 0.500000
vt 0.125000 0.500000
vt 0.187500 0.750000
vt 0.187500 0.750000
vt 0.250000 0.750000
vt 0.250000 0.750000
vt 0.250000 0.500000
vt 0.187500 0.500000
vt 0.250000 0.500000
vt 0.187500 0.500000
vt 0.375000 0.750000
vt 0.312500 0.750000
vt 0.375000 0.500000
vt 0.375000 0.750000
vt 0.375000 0.750000
vt 0.375000 0.500000
vt 0.343750 0.500000
vt 0.343750 0.750000
vt 0.218750 0.500000
vt 0.218750 0.750000
vt 0.250000 0.750000
vt 0.250000 0.500000
vt 0.187500 0.500000
vt 0.187500 0.750000
vt 0.375000 0.500000
vt 0.375000 0.750000
vt 0.375000 0.750000
vt 0.375000 0.500000
vt 0.375000 0.500000
vt 0.375000 0.500000
vt 0.375000 0.500000
vt 0.375000 0.500000
vt 0.375000 0.750000
vt 0.375000 0.750000
vt 0.375000 0.750000
vt 0.375000 0.750000
vt 0.281250 0.750000
vt 0.281250 0.500000
vt 0.312500 0.750000
vt 0.312500 0.500000
vt 0.375000 0.500000
vt 0.375000 0.500000
vt 0.375000 0.500000
vt 0.375000 0.500000
vt 0.375000 0.750000
vt 0.375000 0.750000
vt 0.375000 0.750000
vt 0.375000 0.750000
vt 0.375000 0.750000
vt 0.375000 0.500000
vt 0.375000 0.750000
vt 0.375000 0.500000
vt 0.375000 0.750000
vt 0.375000 0.500000
vt 0.375000 0.750000
vt 0.375000 0.500000
vt 0.375000 0.750000
vt 0.375000 0.500000
vt 0.375000 0.750000
vt 0.375000 0.750000
vt 0.375000 0.500000
vt 0.375000 0.500000
vt 0.375000 0.750000
vt 0.375000 0.500000
vt 0.375000 0.750000
vt 0.375000 0.500000
vt 0.375000 0.750000
vt 0.375000 0.500000
vn 1.0000 0.0000 0.0001
vn 0.0000 1.0000 0.0000
vn -0.1115 0.9915 -0.0673
vn 0.3470 0.3288 -0.8784
vn -0.7147 0.6221 -0.3198
vn -0.5692 0.0568 0.8203
vn -0.8485 0.0000 -0.5293
vn -0.5170 0.2064 0.8307
vn 0.5134 0.1478 -0.8453
vn 0.3513 0.9180 0.1841
vn -0.1052 0.9931 -0.0511
vn 0.2732 0.0331 -0.9614
vn -0.4013 0.1454 0.9043
vn -0.5903 0.3478 0.7284
vn 0.4507 0.1807 -0.8742
vn -0.1740 0.9799 -0.0980
vn 0.3040 0.0000 -0.9527
vn -0.7394 0.3418 0.5800
vn -0.7977 0.0000 0.6031
vn 0.3055 0.3450 -0.8875
vn -0.2267 0.0886 0.9699
vn 0.8668 -0.0612 0.4950
vn 0.8579 0.0834 -0.5070
vn -0.7692 -0.0612 -0.6361
vn -0.7428 0.2930 -0.6020
vn 0.7771 0.2459 -0.5793
vn 0.8252 0.2930 0.4828
vn -0.3035 0.2029 0.9310
vn 0.2987 0.0000 -0.9544
vn -0.8351 0.0000 -0.5501
vn -0.7942 0.0000 0.6077
vn 0.8092 0.0000 0.5876
vn 0.7944 -0.0000 0.6074
vn -0.6221 0.0000 -0.7829
vn 0.3471 0.6408 0.6848
usemtl Material.001
s off
f 2/1/1 1/2/1 4/3/1 3/4/1
f 5/5/2 6/6/2 1/2/2 2/1/2
f 6/7/2 5/8/2 38/9/2 56/10/2
f 24/11/3 23/12/3 13/13/3 14/14/3
f 16/15/2 15/16/2 29/17/2 30/18/2
f 19/19/4 24/11/4 14/14/4 10/20/4
f 7/21/5 12/22/5 11/23/5 8/24/5
f 21/25/6 22/26/6 12/22/6 7/21/6
f 14/14/7 13/13/7 15/16/7 16/15/7
f 21/27/8 23/12/8 18/28/8
f 19/29/9 20/30/9 17/31/9
f 20/30/10 22/26/10 18/28/10 17/31/10
f 11/23/11 12/22/11 22/26/11 20/30/11
f 8/24/12 11/23/12 20/30/12 19/32/12
f 21/25/13 18/28/13 22/26/13
f 9/33/14 13/13/14 23/12/14 21/34/14
f 19/19/15 17/31/15 24/11/15
f 17/31/16 18/28/16 23/12/16 24/11/16
f 14/14/17 16/15/17 30/18/17 28/35/17
f 9/33/18 25/36/18 27/37/18 13/13/18
f 15/16/19 13/13/19 27/37/19 29/17/19
f 14/14/20 28/35/20 26/38/20 10/20/20
f 34/39/2 35/40/2 9/33/2 10/20/2
f 54/41/2 37/42/2 32/43/2 53/44/2
f 55/45/2 31/46/2 37/42/2 54/41/2
f 56/10/2 38/9/2 31/46/2 55/45/2
f 40/47/2 39/48/2 41/49/2 42/50/2
f 48/51/21 45/52/21 44/53/21 47/54/21
f 47/54/22 44/53/22 43/55/22 49/56/22
f 49/56/23 43/55/23 46/57/23 50/58/23
f 50/58/24 46/57/24 45/52/24 48/51/24
f 41/49/25 50/58/25 48/51/25 42/50/25
f 39/48/26 49/56/26 50/58/26 41/49/26
f 40/47/27 47/54/27 49/56/27 39/48/27
f 42/50/28 48/51/28 47/54/28 40/47/28
f 53/44/2 32/43/2 36/59/2 52/60/2
f 52/60/2 36/59/2 33/61/2 51/62/2
f 51/62/2 33/61/2 35/40/2 34/39/2
f 60/63/29 58/64/29 62/65/29 63/66/29
f 58/64/30 57/67/30 61/68/30 62/65/30
f 57/67/31 59/69/31 64/70/31 61/68/31
f 59/69/32 60/63/32 63/66/32 64/70/32
f 25/36/33 26/38/33 28/35/33 27/37/33
f 30/18/33 29/17/33 27/37/33 28/35/33
f 25/36/33 65/71/33 66/72/33 26/38/33
f 65/71/2 67/73/2 68/74/2 66/72/2
f 67/73/34 69/75/34 70/76/34 68/74/34
f 69/75/2 71/77/2 72/78/2 70/76/2
f 71/77/35 73/79/35 74/80/35 72/78/35
f 80/81/2 75/82/2 76/83/2 79/84/2
f 73/79/2 82/85/2 77/86/2 74/80/2
f 82/85/2 81/87/2 78/88/2 77/86/2
f 81/87/2 80/81/2 79/84/2 78/88/2
f 46/57/2 84/89/2 83/90/2 45/52/2
